# xmcd
#
# Track frame offsets:
#	150
#	15122
#	33670
#	48327
#	64795
#	81142
#	102030
#	119160
#	133455
#	159387
#	175435
#	191317
#
# Disc length: 2773 seconds
#
# Revision: 1
# Processed by: cddbd v1.5.1PL2 Copyright (c) Steve Scherf et al.
# Submitted via: dBpowerAMP V4.0
#
DISCID=9d0ad30c
DTITLE=Mark Lemhouse - The Great American Yard Sale
DYEAR=2005
DGENRE=Americana
TTITLE0=Scarlet
TTITLE1=Paper Sack
TTITLE2=I'm Worried
TTITLE3=Leroy Feller's Blues
TTITLE4=Never Me
TTITLE5=Cluck Old Hen
TTITLE6=Salem
TTITLE7=Nothin' In The World Can Stop Me Worryin' 'bout That Girl
TTITLE8=The Unofficial Ballad of Story Musgrave
TTITLE9=The Queen of Easy Street
TTITLE10=Hazy
TTITLE11=You're a Bastard
EXTD=(c) (p) 2005 Yellow Dog Records\nwww.yellowdogrecords.com/marklemhouse
EXTT0=
EXTT1=
EXTT2=
EXTT3=
EXTT4=
EXTT5=
EXTT6=
EXTT7=
EXTT8=
EXTT9=
EXTT10=
EXTT11=
PLAYORDER=
